<?xml version="1.0" standalone="no"?>
<!DOCTYPE svg PUBLIC "-//W3C//DTD SVG 20010904//EN"
 "http://www.w3.org/TR/2001/REC-SVG-20010904/DTD/svg10.dtd">
<svg version="1.0" xmlns="http://www.w3.org/2000/svg"
 width="512.000000pt" height="512.000000pt" viewBox="0 0 512.000000 512.000000"
 preserveAspectRatio="xMidYMid meet">
    <style>
        g {
            fill: #000;
        }
        @media (prefers-color-scheme: dark) {
            g {
                fill: #fff;
            }
        }
    </style>
    <g transform="translate(0.000000,512.000000) scale(0.100000,-0.100000)"
    fill="#000000" stroke="none">
        <path d="M617 4744 l-617 -376 0 -748 0 -748 457 -278 c252 -152 466 -279 475
        -282 17 -4 18 33 18 741 l0 744 598 364 c328 199 605 368 614 374 15 10 -49
        52 -409 271 -235 142 -448 271 -473 286 l-46 27 -617 -375z"/>
        <path d="M3415 4834 c-258 -156 -470 -285 -471 -287 -2 -1 274 -170 612 -376
        l614 -373 0 -745 c0 -708 1 -745 18 -741 9 3 223 130 475 282 l457 278 0 748
        0 748 -612 373 c-337 204 -616 373 -619 375 -3 2 -216 -125 -474 -282z"/>
        <path d="M1332 1318 l3 -572 590 -358 c325 -198 602 -365 616 -373 25 -13 47
        -1 640 359 l614 373 3 572 c2 460 0 572 -11 568 -11 -4 -374 -224 -1015 -613
        -112 -68 -205 -124 -207 -124 -2 0 -84 49 -182 108 -459 280 -1043 632 -1048
        632 -3 0 -4 -257 -3 -572z"/>
    </g>
</svg>
