<svg width="50" height="50" viewBox="0 0 50 50" fill="none" xmlns="http://www.w3.org/2000/svg">
<path d="M25 8C15.626 8 8 15.626 8 25C8 34.374 15.626 42 25 42C34.374 42 42 34.374 42 25C42 15.626 34.374 8 25 8ZM25 8.9707C33.838 8.9707 41.0293 16.162 41.0293 25C41.0293 33.838 33.838 41.0293 25 41.0293C16.162 41.0293 8.9707 33.839 8.9707 25C8.9707 16.161 16.162 8.9707 25 8.9707ZM23.2637 14C23.0557 14 22.8965 14.1583 22.8965 14.4023V16.334H20.916C20.5 16.334 20.2676 16.5794 20.2676 16.9824V32.7852C20.2676 33.2002 20.4991 33.4336 20.9141 33.4336H22.8945V35.6094C22.8945 35.8414 23.0537 36 23.2617 36C23.4697 36 23.6289 35.8414 23.6289 35.6094V33.4336H25.6328V35.6094C25.6328 35.8414 25.792 36 26 36C26.208 36 26.3672 35.8414 26.3672 35.6094V33.4336C29.7162 33.2986 31.7324 31.5757 31.7324 28.8867C31.7324 26.3937 29.8991 24.8293 27.4551 24.5723V24.5117C29.4961 24.1327 30.8281 22.531 30.8281 20.502C30.8281 18.168 29.0442 16.5424 26.3672 16.3594V14.4023C26.3672 14.1583 26.208 14 26 14C25.792 14 25.6338 14.1583 25.6348 14.4023V16.334H23.6309V14.4023C23.6309 14.1583 23.4717 14 23.2637 14ZM21.2324 17.2148H25.6816C28.2116 17.2148 29.8613 18.5095 29.8613 20.5625C29.8613 22.8235 28.1262 24.1934 25.4492 24.1934H21.2324V17.2148ZM21.2324 25.0723H25.6074C28.8464 25.0723 30.7539 26.4906 30.7539 28.8496C30.7539 31.1596 28.9335 32.5664 25.8535 32.5664V32.5645H21.2324V25.0723Z" fill="#040505"/>
</svg>
