<svg width="50" height="50" viewBox="0 0 50 50" fill="none" xmlns="http://www.w3.org/2000/svg">
<path d="M25 10.0879C24.26 10.0879 23.5201 10.2343 22.8301 10.5293L12.7109 14.8906L14.0508 15.4024L23.2305 11.4492C23.7905 11.2092 24.4 11.0898 25 11.0898C25.6 11.0898 26.2095 11.2092 26.7695 11.4492L46.6992 20.0391C46.9792 20.1591 47 20.42 47 20.5C47 20.58 46.9792 20.8409 46.6992 20.9609L26.7695 29.5508C25.6395 30.0308 24.3605 30.0308 23.2305 29.5508L3.30078 20.9609C3.02078 20.8409 3 20.58 3 20.5C3 20.42 3.02078 20.1591 3.30078 20.0391L12.7812 15.9551L24.8086 20.9668C24.8706 20.9938 24.936 21.0059 25 21.0059C25.195 21.0059 25.3829 20.8903 25.4629 20.6973C25.5679 20.4423 25.4464 20.1509 25.1914 20.0449L14.0508 15.4024L12.7109 14.8906L2.90039 19.1191C2.34039 19.3591 2 19.89 2 20.5C2 21.11 2.34039 21.6409 2.90039 21.8809L11 25.3711V30.6348V37.0195C10.4413 37.0722 10 37.527 10 38.0996V41.9004C10 42.5084 10.4916 43 11.0996 43H11.9004C12.5084 43 13 42.5084 13 41.9004V38.0996C13 37.527 12.5587 37.0722 12 37.0195V33.4531C12.1606 33.6535 12.3342 33.8448 12.5293 34.0176C14.5803 35.8336 18.408 38 25 38C31.592 38 35.4207 35.8336 37.4707 34.0176C38.4427 33.1576 39 31.9248 39 30.6348V25.3711L47.0996 21.8809C47.6596 21.6409 48 21.11 48 20.5C48 19.89 47.6596 19.3591 47.0996 19.1191L27.1699 10.5293C26.4799 10.2343 25.74 10.0879 25 10.0879ZM12 25.8027L22.8301 30.4707C23.5201 30.7707 24.26 30.9102 25 30.9102C25.74 30.9102 26.4799 30.7707 27.1699 30.4707L38 25.8027V30.6348C38 31.6378 37.5646 32.5985 36.8066 33.2695C35.2336 34.6625 31.609 37 25 37C18.391 37 14.7654 34.6635 13.1914 33.2695C12.4344 32.5995 12 31.6378 12 30.6348V25.8027Z" fill="#040505"/>
</svg>
