<svg width="50" height="50" viewBox="0 0 50 50" fill="none" xmlns="http://www.w3.org/2000/svg">
<path d="M22 8.00008C18.42 8.00008 15.6281 11.1392 16.0391 14.6602C13.5721 15.8092 12 18.2561 12 21.0001C12 21.7891 12.1316 22.5637 12.3926 23.3067C10.8676 24.8087 10 26.8641 10 29.0001C10 33.4111 13.589 37.0001 18 37.0001H20.6406L20.5 41.4005C20.499 41.4305 20.499 41.4652 20.5 41.4962C20.527 42.3242 21.2208 42.9743 22.0488 42.9473C22.8768 42.9213 23.527 42.2285 23.5 41.4005L23.0586 27.6095L25.9277 21.9239C26.0387 21.7049 25.9755 21.4322 25.7695 21.2872C25.5435 21.1272 25.2293 21.1823 25.0703 21.4083L22.9551 24.4122L22.75 18.0001C22.737 17.6081 22.4204 17.2865 22.0234 17.2735C21.6094 17.2605 21.263 17.5861 21.25 18.0001L21.1074 22.4473L18.9258 20.2306C18.7588 20.0616 18.4892 20.0281 18.2852 20.1661C18.0552 20.3211 17.9954 20.6334 18.1504 20.8634L21.0215 25.1134L20.9453 27.5079C20.9437 27.5258 20.944 27.5428 20.9434 27.5606L20.8516 30.4005L16.8945 28.1446C16.6855 28.0256 16.4148 28.0708 16.2578 28.2638C16.0818 28.4788 16.1131 28.7938 16.3281 28.9688L20.7812 32.6056L20.6719 36.0001H18C14.141 36.0001 11 32.8601 11 29.0001C11 27.0321 11.8435 25.1416 13.3125 23.8126C13.4685 23.6706 13.5204 23.447 13.4414 23.252C13.1484 22.532 13 21.7731 13 21.0001C13 18.5341 14.4824 16.3487 16.7754 15.4317C16.9954 15.3437 17.123 15.1139 17.082 14.8809C17.027 14.5679 17 14.2791 17 14.0001C17 11.2431 19.243 9.00008 22 9.00008C24.944 9.00008 27.2877 11.5543 26.9707 14.5313C26.9427 14.7953 27.1247 15.0362 27.3867 15.0782C28.6255 15.279 29.7555 15.9113 30.5957 16.8497L25.0195 36.3634C24.9765 36.5134 25.0066 36.6759 25.1016 36.8009C25.1956 36.9259 25.343 37.0001 25.5 37.0001H32.1445L32 41.4005C32.001 41.3995 31.999 41.4991 32 41.5001C32.03 42.3201 32.7208 42.9693 33.5508 42.9493C34.3808 42.9193 35.03 42.2305 35 41.4005L34.8555 37.0001H42.5C42.66 37.0001 42.8103 36.925 42.9043 36.795C42.9973 36.666 43.0246 36.4997 42.9746 36.3477L33.9746 8.34774C33.9066 8.13474 33.7072 7.99608 33.4922 8.00008C33.2712 8.00408 33.0795 8.15137 33.0195 8.36337L30.9082 15.7501C30.0847 14.9887 29.0869 14.4398 27.9961 14.1817C28.1041 10.8497 25.417 8.00008 22 8.00008ZM33.5273 10.2227L41.8145 36.0001H26.1621L33.5273 10.2227Z" fill="#040505"/>
</svg>
