<svg width="50" height="50" viewBox="0 0 50 50" fill="none" xmlns="http://www.w3.org/2000/svg">
<path d="M9.06836 10.998C7.96336 10.998 7.06836 11.893 7.06836 12.998V19.502C7.06836 19.786 7.30194 19.999 7.58594 20C10.7239 20.008 13 22.108 13 25C13 27.891 10.7259 29.992 7.58789 30C7.30389 30.001 7.06836 30.216 7.06836 30.5V37C7.06836 38.105 7.96336 39 9.06836 39H40.9316C42.0356 39 42.9326 38.106 42.9316 37.002V30.498C42.9316 30.214 42.6981 30.001 42.4141 30C39.2761 29.992 37 27.892 37 25C37 22.109 39.2741 20.007 42.4121 19.998C42.6961 19.997 42.9316 19.782 42.9316 19.498V12.998C42.9316 11.893 42.0366 10.998 40.9316 10.998H9.06836ZM9.06836 12H40.9316C41.4836 12 41.9316 12.448 41.9316 13V19.0156C38.4646 19.2296 36 21.681 36 25C36 28.319 38.4656 30.7704 41.9316 30.9844V37C41.9316 37.552 41.4836 38 40.9316 38H9.06836C8.51636 38 8.06836 37.552 8.06836 37V30.9844C11.5354 30.7704 14 28.319 14 25C14 21.681 11.5354 19.2296 8.06836 19.0156V13C8.06836 12.448 8.51636 12 9.06836 12ZM25 19.5C24.7479 19.5 24.4962 19.6395 24.3867 19.918L23.1797 23.0039L19.8711 23.1992C19.2731 23.2352 19.0292 23.9852 19.4922 24.3652L22.0547 26.4668L21.2168 29.6738C21.0658 30.2528 21.705 30.7175 22.209 30.3945L25 28.6074L27.7891 30.3945C28.2941 30.7175 28.9322 30.2528 28.7812 29.6738L27.9453 26.4668L30.5078 24.3652C30.9708 23.9852 30.7269 23.2342 30.1289 23.1992L26.8203 23.0039L25.6133 19.918C25.5043 19.6395 25.2521 19.5 25 19.5Z" fill="#040505"/>
</svg>
