<svg width="50" height="50" viewBox="0 0 50 50" fill="none" xmlns="http://www.w3.org/2000/svg">
<path d="M9.5 10C7.019 10 5 12.019 5 14.5V29.5C5 31.981 7.019 34 9.5 34H12V35.5C12 37.981 14.019 40 16.5 40H40.5C42.981 40 45 37.981 45 35.5V21.5C45 19.019 42.981 17 40.5 17H38V14.5C38 12.019 35.981 10 33.5 10H9.5ZM9.5 11H33.5C35.43 11 37 12.57 37 14.5V15H6V14.5C6 12.57 7.57 11 9.5 11ZM38 18H40.5C42.43 18 44 19.57 44 21.5V22H38V18ZM6 19H37V29.5C37 31.43 35.43 33 33.5 33H9.5C7.57 33 6 31.43 6 29.5V19ZM38 26H44V35.5C44 37.43 42.43 39 40.5 39H16.5C14.57 39 13 37.43 13 35.5V34H33.5C35.981 34 38 31.981 38 29.5V26Z" fill="#040505"/>
</svg>
