<svg width="50" height="50" viewBox="0 0 50 50" fill="none" xmlns="http://www.w3.org/2000/svg">
<path d="M16.6309 9C13.4879 9 7 11.5396 7 19.3906C7 25.4256 10.784 30.1374 14.082 33.5684C18.455 38.1184 23.898 41.957 25 41.957C26.102 41.957 31.545 38.1174 35.918 33.5684C39.216 30.1374 43 25.4256 43 19.3906C43 11.5396 36.5121 9 33.3691 9C28.6061 9 25.974 11.7906 25 13.0996C24.027 11.7906 21.3939 9 16.6309 9ZM16.6309 10C20.6779 10 23.4703 12.7559 24.5273 14.0059C24.7763 14.2989 25.2227 14.2989 25.4707 14.0059C26.5287 12.7559 29.3221 10 33.3691 10C35.1548 10 38.1399 10.9277 40.0898 13.4102L25.0078 27.7422L18.873 21.6074C18.678 21.4124 18.361 21.4124 18.166 21.6074C17.971 21.8024 17.971 22.1195 18.166 22.3145L24.6465 28.7949C24.7445 28.8919 24.872 28.9395 25 28.9395C25.124 28.9395 25.2477 28.8947 25.3438 28.8027L40.6641 14.2441C41.4716 15.5759 42 17.2635 42 19.3906C42 25.0686 38.3633 29.58 35.1953 32.875C30.7613 37.488 25.8 40.7911 25 40.9531C24.2 40.7901 19.2397 37.487 14.8047 32.873C11.6367 29.578 8 25.0686 8 19.3906C8 12.2946 13.8139 10 16.6309 10Z" fill="#040505"/>
</svg>
