<svg width="50" height="50" viewBox="0 0 50 50" fill="none" xmlns="http://www.w3.org/2000/svg">
<path d="M11.5 13C9.57 13 8 14.57 8 16.5V35H4C3.447 35 3 35.448 3 36C3 36.552 3.447 37 4 37H46C46.553 37 47 36.552 47 36C47 35.448 46.553 35 46 35H42V16.5C42 14.57 40.43 13 38.5 13H11.5ZM11.5 14H38.5C39.879 14 41 15.122 41 16.5V35H9V16.5C9 15.122 10.121 14 11.5 14ZM27.0977 18.752C26.9028 18.7586 26.7227 18.8768 26.6484 19.0703L22.418 30.0703C22.319 30.3273 22.4471 30.6178 22.7051 30.7168C22.7651 30.7388 22.8248 30.75 22.8848 30.75C23.0858 30.75 23.2756 30.6277 23.3516 30.4297L27.5801 19.4297C27.6791 19.1727 27.5529 18.8822 27.2949 18.7832C27.2302 18.759 27.1626 18.7498 27.0977 18.752ZM19.8223 20.4805C19.6944 20.488 19.5686 20.5444 19.4766 20.6484L16.127 24.418C15.959 24.607 15.959 24.893 16.127 25.082L19.4766 28.8516C19.5756 28.9626 19.7136 29.0195 19.8516 29.0195C19.9696 29.0195 20.0886 28.9776 20.1836 28.8926C20.3896 28.7086 20.4086 28.3935 20.2246 28.1875L17.1699 24.748L20.2246 21.3125C20.4086 21.1065 20.3896 20.7885 20.1836 20.6055C20.0811 20.5135 19.9501 20.473 19.8223 20.4805ZM30.1777 20.4805C30.0499 20.4728 29.9189 20.5149 29.8164 20.6074C29.6104 20.7914 29.5914 21.1065 29.7754 21.3125L32.8301 24.75L29.7754 28.1875C29.5914 28.3935 29.6104 28.7115 29.8164 28.8945C29.9114 28.9785 30.0304 29.0195 30.1484 29.0195C30.2864 29.0195 30.4254 28.9635 30.5234 28.8535L33.873 25.082C34.041 24.893 34.041 24.6089 33.873 24.4199L30.5234 20.6484C30.4314 20.5444 30.3056 20.4881 30.1777 20.4805Z" fill="#040505"/>
</svg>
