<svg width="50" height="50" viewBox="0 0 50 50" fill="none" xmlns="http://www.w3.org/2000/svg">
<path d="M16.2754 8.11328L8.46289 11.6777C7.57489 12.0837 7 12.9742 7 13.9512V36.5C7 38.43 8.57 40 10.5 40H39.5C41.43 40 43 38.43 43 36.5L43.002 13.9512C43.002 12.9742 42.4261 12.0827 41.5371 11.6777L33.7617 8.13281L25 12.1152L16.2754 8.11328ZM16.2754 9.21289L24.5 12.9863V39H10.5C9.122 39 8 37.878 8 36.5V13.9512C8 13.3652 8.34491 12.8309 8.87891 12.5879L16.2754 9.21289ZM33.7617 9.23047L41.123 12.5879C41.655 12.8309 42.002 13.3652 42.002 13.9512L42 36.5C42 37.878 40.878 39 39.5 39H25.5V12.9863L33.7617 9.23047ZM12.5 19C12.224 19 12 19.224 12 19.5V21.5C12 21.776 12.224 22 12.5 22H14.5C14.776 22 15 21.776 15 21.5V19.5C15 19.224 14.776 19 14.5 19H12.5ZM18.5 19C18.224 19 18 19.224 18 19.5V21.5C18 21.776 18.224 22 18.5 22H20.5C20.776 22 21 21.776 21 21.5V19.5C21 19.224 20.776 19 20.5 19H18.5ZM29.5 19C29.224 19 29 19.224 29 19.5V21.5C29 21.776 29.224 22 29.5 22H31.5C31.776 22 32 21.776 32 21.5V19.5C32 19.224 31.776 19 31.5 19H29.5ZM35.5 19C35.224 19 35 19.224 35 19.5V21.5C35 21.776 35.224 22 35.5 22H37.5C37.776 22 38 21.776 38 21.5V19.5C38 19.224 37.776 19 37.5 19H35.5ZM12.5 25C12.224 25 12 25.224 12 25.5V27.5C12 27.776 12.224 28 12.5 28H14.5C14.776 28 15 27.776 15 27.5V25.5C15 25.224 14.776 25 14.5 25H12.5ZM18.5 25C18.224 25 18 25.224 18 25.5V27.5C18 27.776 18.224 28 18.5 28H20.5C20.776 28 21 27.776 21 27.5V25.5C21 25.224 20.776 25 20.5 25H18.5ZM29.5 25C29.224 25 29 25.224 29 25.5V27.5C29 27.776 29.224 28 29.5 28H31.5C31.776 28 32 27.776 32 27.5V25.5C32 25.224 31.776 25 31.5 25H29.5ZM35.5 25C35.224 25 35 25.224 35 25.5V27.5C35 27.776 35.224 28 35.5 28H37.5C37.776 28 38 27.776 38 27.5V25.5C38 25.224 37.776 25 37.5 25H35.5ZM12.5 31C12.224 31 12 31.224 12 31.5V33.5C12 33.776 12.224 34 12.5 34H14.5C14.776 34 15 33.776 15 33.5V31.5C15 31.224 14.776 31 14.5 31H12.5ZM18.5 31C18.224 31 18 31.224 18 31.5V33.5C18 33.776 18.224 34 18.5 34H20.5C20.776 34 21 33.776 21 33.5V31.5C21 31.224 20.776 31 20.5 31H18.5ZM29.5 31C29.224 31 29 31.224 29 31.5V33.5C29 33.776 29.224 34 29.5 34H31.5C31.776 34 32 33.776 32 33.5V31.5C32 31.224 31.776 31 31.5 31H29.5ZM35.5 31C35.224 31 35 31.224 35 31.5V33.5C35 33.776 35.224 34 35.5 34H37.5C37.776 34 38 33.776 38 33.5V31.5C38 31.224 37.776 31 37.5 31H35.5Z" fill="#040505"/>
</svg>
