<svg width="50" height="50" viewBox="0 0 50 50" fill="none" xmlns="http://www.w3.org/2000/svg">
<path d="M2.5 7C2.224 7 2 7.224 2 7.5C2 7.776 2.224 8 2.5 8H9.33203L12.8594 29.8672C13.1524 31.6822 14.6991 33 16.5371 33H38.5C38.776 33 39 32.776 39 32.5C39 32.224 38.776 32 38.5 32H16.5371C15.1921 32 14.0607 31.035 13.8457 29.707L13.3262 26.4902H38.3633C40.1863 26.4902 41.7293 25.1838 42.0293 23.3848L43.9922 11.6016C44.0172 11.4566 43.9778 11.3073 43.8828 11.1953C43.7868 11.0833 43.647 11.0195 43.5 11.0195H10.832L10.252 7.41992C10.213 7.17792 10.0028 7 9.75781 7H2.5ZM10.9941 12.0195H42.9102L41.043 23.2207C40.823 24.5357 39.6963 25.4902 38.3633 25.4902H13.166L10.9941 12.0195ZM19 37C17.343 37 16 38.343 16 40C16 41.657 17.343 43 19 43C20.657 43 22 41.657 22 40C22 38.343 20.657 37 19 37ZM35 37C33.343 37 32 38.343 32 40C32 41.657 33.343 43 35 43C36.657 43 38 41.657 38 40C38 38.343 36.657 37 35 37Z" fill="#040505"/>
</svg>
