<svg width="50" height="50" viewBox="0 0 50 50" fill="none" xmlns="http://www.w3.org/2000/svg">
<path d="M25 6C24.724 6 24.5 6.224 24.5 6.5V9.01367C8.94718 9.30607 6.96094 22.9668 6.96094 22.9668C6.96094 22.9668 9.31772 24.9199 15.6367 24.9199C16.3191 25.2409 20.01 26.8607 24.5 26.9785V34.0117C17.7102 34.0761 11 35.4371 11 38C11 40.626 18.043 42 25 42C31.957 42 39 40.626 39 38C39 35.626 33.244 34.281 27 34.043V35.043C33.86 35.302 38 36.855 38 38C38 39.253 33.054 41 25 41C16.946 41 12 39.253 12 38C12 36.7743 16.7545 35.087 24.5 35.0137V37.5C24.5 37.776 24.724 38 25 38C25.276 38 25.5 37.776 25.5 37.5V26.9785C29.99 26.8607 33.6819 25.2419 34.3652 24.9219C40.7712 24.9219 43.041 22.9688 43.041 22.9688C43.041 22.9688 41.0528 9.30609 25.5 9.01367V6.5C25.5 6.224 25.276 6 25 6ZM25 10C25.0674 10 25.1304 10.0034 25.1973 10.0039C26.5261 10.3505 32.1181 12.4987 33.6953 24.1113C32.6957 24.559 29.1874 26 25 26C20.8126 26 17.3043 24.559 16.3047 24.1113C17.8831 12.4858 23.4882 10.3467 24.8086 10.0039C24.8735 10.0034 24.9346 10 25 10ZM27.834 10.166C39.0997 11.4897 41.5552 20.5873 41.9453 22.4844C39.384 23.7968 35.872 23.9167 34.6777 23.9199C33.52 15.4979 30.2382 11.7777 27.834 10.166ZM22.1543 10.1738C19.7517 11.7885 16.4813 15.508 15.3242 23.9141C14.1218 23.8996 10.5047 23.7547 8.05859 22.4863C8.46491 20.6361 11.0347 11.5218 22.1543 10.1738Z" fill="#040505"/>
</svg>
