<svg width="53" height="53" viewBox="0 0 53 53" fill="none" xmlns="http://www.w3.org/2000/svg">
<path d="M2.00021 26C6.38839 26 10.6996 24.8448 14.5001 22.6507C18.3006 20.4563 21.4563 17.3006 23.6509 13.4999C25.845 9.6994 27.0002 5.38818 27.0002 1H2.00038L2.00021 26Z" stroke="#040505"/>
<path d="M27 1.00024C27 7.63073 29.6339 13.9894 34.3224 18.6778C39.0106 23.3663 45.3697 26.0002 52 26.0002V1.00042L27 1.00024Z" stroke="#040505"/>
<path d="M2.00018 25.9999V50.9998H27C27 44.3693 24.3661 38.0106 19.6776 33.3222C14.9894 28.6337 8.63031 25.9998 2 25.9998L2.00018 25.9999Z" stroke="#040505"/>
<path d="M27 50.9998H51.9998V26C45.3693 26 39.0106 28.6339 34.3223 33.3224C29.6337 38.0106 26.9998 44.3697 26.9998 51L27 50.9998Z" stroke="#040505"/>
</svg>
