<svg width="50" height="50" viewBox="0 0 50 50" fill="none" xmlns="http://www.w3.org/2000/svg">
<path d="M49.8392 39.4398V49.85H0.15V0.15H49.85V39.3788L49.8392 39.3955V39.4398ZM1.54192 36.6522L1.49799 36.6961L1.498 36.7583L1.49858 48.3518L1.49858 48.5018H1.64858H28.4118H28.474L28.5179 48.4578L48.4586 28.5236L48.5026 28.4796V28.4175L48.5022 7.04877L48.5022 6.68659L48.2461 6.94272L17.9192 37.2762L16.9669 36.3236L48.4474 4.84706L48.4913 4.80312V4.74098V1.66946V1.51945L48.3413 1.51946L21.5388 1.51984L21.4767 1.51984L21.4327 1.56378L8.35485 14.6445L7.40245 13.6919L19.3327 1.75419L19.5886 1.49816H19.2266H1.648H1.498V1.64816V8.05485V8.41701L1.75407 8.16091L6.10327 3.81115L7.05591 4.76399L1.56923 10.2785L1.52556 10.3224V10.3843V34.4012V34.7634L1.78164 34.5073L8.81697 27.4704L9.76935 28.423L1.54192 36.6522ZM48.3412 48.5016H48.4914L48.4912 48.3514L48.48 41.0766L48.4795 40.7152L48.224 40.9708L43.4629 45.7329L42.5105 44.7803L48.4473 38.8422L48.4912 38.7983V38.7362V30.7692V30.407L48.2351 30.6632L30.6565 48.2456L30.4005 48.5016H30.7626H48.3412Z" fill="#040505" stroke="white" stroke-width="0.3"/>
</svg>
