<svg width="53" height="52" viewBox="0 0 53 52" fill="none" xmlns="http://www.w3.org/2000/svg">
<path d="M1 25.7958C5.3882 25.7958 9.69943 24.6501 13.5 22.4739C17.3005 20.2974 20.4562 17.1675 22.6508 13.3978C24.8449 9.62835 26.0001 5.35234 26.0001 1H1.00018L1 25.7958Z" stroke="#040505"/>
<path d="M25.9999 1.00024C25.9999 7.57658 28.6338 13.8833 33.3224 18.5334C38.0106 23.1837 44.3697 25.7961 51 25.7961V1.00042L25.9999 1.00024Z" stroke="#040505"/>
<path d="M1 50.5912C5.3882 50.5912 9.69943 49.4455 13.5 47.2693C17.3005 45.0928 20.4562 41.9629 22.6508 38.1932C24.8449 34.4238 26.0001 30.1478 26.0001 25.7954H1.00018L1 50.5912Z" stroke="#040505"/>
<path d="M50.9998 50.5915V25.7959H25.9999C25.9999 32.3722 28.6338 38.679 33.3224 43.3291C38.0106 47.9793 44.3696 50.5917 51 50.5917L50.9998 50.5915Z" stroke="#040505"/>
<path d="M1.48511 51H50.7969" stroke="#040505"/>
</svg>
