<svg width="50" height="50" viewBox="0 0 50 50" fill="none" xmlns="http://www.w3.org/2000/svg">
<path d="M11.3885 26.5169V26.8789L11.6445 26.623L36.5238 1.75503L36.78 1.49894H36.4178H27.9729H27.9108L27.8669 1.54284L11.4324 17.9655L11.3885 18.0095V18.0716V26.5169ZM38.7363 1.49835H38.6741L38.6302 1.54231L11.4436 28.7402L11.3996 28.7841V28.8463V37.2969V37.6591L11.6557 37.403L47.2984 1.75441L47.5544 1.49835H47.1923H38.7363ZM11.3993 15.7418V16.104L11.6553 15.8478L25.7434 1.7544L25.9994 1.49835H25.6374H17.1925H17.1303L17.0864 1.54233L11.4431 7.19049L11.3993 7.23441V7.29651V15.7418ZM11.3993 4.96173V5.32387L11.6553 5.0678L14.9522 1.7709L15.2083 1.51484H14.8462H11.5493H11.3993V1.66484V4.96173ZM48.5124 2.81887L48.5124 2.45684L48.2564 2.7128L12.614 38.3447L12.3579 38.6007H12.7201H21.1542H21.2163L21.2603 38.5569L48.4688 11.3698L48.5128 11.3259V11.2637L48.5124 2.81887ZM48.5124 13.5989L48.5124 13.237L48.2564 13.4928L23.3884 38.3446L23.1321 38.6007H23.4944H31.945H32.0071L32.0511 38.5568L48.4689 22.1499L48.5128 22.1059V22.0438L48.5124 13.5989ZM48.5124 24.374L48.5124 24.0121L48.2564 24.2679L34.1687 38.3448L33.9124 38.6009H34.2747H42.72H42.782L42.8259 38.5571L48.4688 32.925L48.5128 32.8811V32.8189L48.5124 24.374ZM48.5124 35.154V34.7919L48.2564 35.048L44.9595 38.3449L44.7034 38.6009H45.0655H48.3624H48.5124V38.4509V35.154ZM1.50914 48.3409L1.50914 48.4908L1.65911 48.4909L48.3628 48.5017L48.5128 48.5017V48.3517V40.1099V39.9599H48.3628H10.0513V1.64835V1.49835H9.90129H1.65953H1.50953L1.50953 1.64835L1.50914 48.3409ZM0.15 49.85V0.15H49.85V49.85H0.15Z" fill="#040505" stroke="white" stroke-width="0.3"/>
</svg>
