<svg width="52" height="52" viewBox="0 0 52 52" fill="none" xmlns="http://www.w3.org/2000/svg">
<path d="M0.999999 51V1H26H51V26V51H0.999999ZM13.5 47.4265C15.873 47.4265 18.1487 46.4838 19.8267 44.8058C21.5046 43.1279 22.4474 40.8518 22.4474 38.4791C22.4474 36.1061 21.5046 33.8304 19.8267 32.1524C18.1487 30.4745 15.873 29.5317 13.5 29.5317C11.127 29.5317 8.85125 30.4745 7.1733 32.1524C5.49535 33.8304 4.55259 36.1061 4.55259 38.4791C4.55259 40.8518 5.49535 43.1279 7.1733 44.8058C8.85125 46.4838 11.127 47.4265 13.5 47.4265Z" stroke="#040505"/>
<path d="M24.2294 15.2705C24.2294 22.1741 29.8258 27.7705 36.7294 27.7705C43.6329 27.7705 49.2294 22.1741 49.2294 15.2705C49.2294 8.36694 43.6329 2.77051 36.7294 2.77051C29.8258 2.77051 24.2294 8.36694 24.2294 15.2705Z" stroke="#040505"/>
</svg>
