<svg width="162" height="27" viewBox="0 0 162 27" fill="none" xmlns="http://www.w3.org/2000/svg">
<path fill-rule="evenodd" clip-rule="evenodd" d="M55.7994 5.49H56.072H58.47H59.2215L58.8667 6.15247L50.2647 22.2125L50.1375 22.45H49.868H47.932H47.6642L47.5365 22.2146L38.8245 6.15457L38.4639 5.49H39.22H41.684H41.9558L42.0823 5.73062L48.8988 18.6986L55.6732 5.73163L55.7994 5.49ZM65.6637 22.45H65.2137H63.0357H62.5857V22V5.94V5.49H63.0357H65.2137H65.6637V5.94V22V22.45ZM87.1243 5.49H87.5743H89.6863H90.1363V5.94V22V22.45H89.6863H87.7943H87.6143L87.484 22.3259L74.0543 9.54169V22V22.45H73.6043H71.4923H71.0423V22V5.94V5.49H71.4923H73.9343H74.114L74.2442 5.61375L87.1243 17.8499V5.94V5.49ZM94.3398 8.304V7.854V5.94V5.49H94.7898H112.962H113.412V5.94V7.854V8.304H112.962H105.426V22V22.45H104.976H102.776H102.326V22V8.304H94.7898H94.3398ZM136.686 22.45H135.434H133.014H132.828L132.696 22.3182C132.393 22.0153 132.165 21.6769 132.022 21.3022L132.017 21.2904L132.014 21.2784C131.893 20.9007 131.838 20.4712 131.838 19.998V18.326C131.838 17.6664 131.795 17.1591 131.716 16.7923V16.7892C131.641 16.43 131.508 16.1918 131.342 16.0357L131.65 15.7083L131.642 15.7163L131.342 16.0357L131.332 16.0263C131.186 15.8799 130.941 15.7542 130.545 15.6903L130.617 15.246L130.614 15.2584L130.545 15.6903L130.536 15.6889L130.528 15.6873C130.13 15.6076 129.576 15.564 128.856 15.564H120.704V22V22.45H120.254H118.076H117.626V22V5.94V5.49H118.076H128.702C129.846 5.49 130.85 5.61001 131.708 5.85931C132.564 6.10399 133.291 6.43857 133.872 6.87339V6.87319C134.45 7.29068 134.889 7.79785 135.175 8.39639V8.39619C135.471 8.97258 135.62 9.58573 135.62 10.23C135.62 10.8906 135.491 11.4916 135.218 12.0204C134.959 12.5225 134.624 12.9564 134.214 13.3178C133.835 13.651 133.414 13.9203 132.95 14.1252C133.39 14.3129 133.768 14.589 134.08 14.9507C134.412 15.3198 134.645 15.7806 134.791 16.3156V16.3157C134.951 16.8525 135.026 17.4892 135.026 18.216V19.998C135.026 20.4005 135.08 20.7169 135.173 20.9598C135.255 21.175 135.425 21.4083 135.721 21.6531L136.686 22.45ZM133.608 7.23824L133.621 7.22012L133.608 7.238C133.608 7.23808 133.608 7.23816 133.608 7.23824ZM131.364 14.168C131.367 14.1684 131.37 14.1688 131.372 14.1692L131.364 14.168ZM130.537 12.9416L130.55 13.0019L130.452 12.563C131.005 12.4384 131.418 12.2717 131.709 12.0776C132.005 11.8804 132.191 11.6623 132.297 11.4298L132.3 11.4218C132.432 11.1464 132.498 10.8535 132.498 10.538C132.498 10.2049 132.431 9.91551 132.304 9.66124L132.3 9.6538L132.297 9.64621C132.191 9.41366 132.005 9.19561 131.709 8.99842L131.958 8.62423L131.953 8.63079L131.709 8.99842L131.7 8.99237L131.691 8.98588C131.419 8.78475 131.028 8.61377 130.493 8.49048L130.594 8.05202L130.575 8.1356L130.493 8.49048L130.491 8.48989C129.979 8.36858 129.327 8.304 128.526 8.304H120.704V12.75H128.416C129.247 12.75 129.922 12.6853 130.449 12.5635L130.452 12.563L130.537 12.9416ZM145.712 21.6686L145.725 21.626L145.585 22.0534C144.294 21.6283 143.2 21.0458 142.312 20.2982L142.308 20.2953L142.581 19.9788L142.602 19.954L142.308 20.2953C141.423 19.5346 140.751 18.6373 140.298 17.605L140.297 17.6028C139.845 16.5599 139.622 15.4352 139.622 14.234V13.706C139.622 12.5057 139.845 11.3882 140.297 10.3592C140.749 9.31278 141.422 8.41428 142.308 7.667V7.66676C143.198 6.90195 144.296 6.31809 145.589 5.90712V5.90726C146.89 5.47919 148.39 5.27 150.082 5.27C151.788 5.27 153.296 5.47922 154.597 5.90769C155.905 6.31837 157.009 6.9018 157.899 7.66676V7.66699C158.786 8.41428 159.458 9.31278 159.911 10.3592C160.362 11.3882 160.586 12.5057 160.586 13.706V14.234C160.586 15.4352 160.362 16.5599 159.911 17.6028L159.91 17.605C159.456 18.6373 158.784 19.5346 157.899 20.2952L157.895 20.2982L157.627 19.9785L157.606 19.9542L157.895 20.2982C157.007 21.0466 155.904 21.629 154.599 22.0539L154.596 22.0549L154.478 21.6823L154.46 21.6261L154.596 22.0549C153.295 22.4681 151.788 22.67 150.082 22.67C148.39 22.67 146.89 22.468 145.589 22.0549L145.585 22.0534L145.712 21.6686ZM144.208 18.612L144.226 18.5894L144.208 18.6118C144.208 18.6118 144.208 18.6119 144.208 18.612ZM144.493 18.264C143.904 17.7672 143.465 17.1816 143.172 16.5047C142.888 15.8165 142.744 15.0541 142.744 14.212V13.728C142.744 12.8859 142.888 12.1235 143.172 11.4353C143.465 10.7581 143.904 10.1802 144.493 9.69831L144.497 9.69441C145.086 9.19897 145.842 8.80664 146.778 8.52724L146.784 8.5254C147.713 8.23427 148.817 8.084 150.104 8.084C151.39 8.084 152.494 8.23427 153.423 8.52544L153.429 8.5272C154.365 8.80664 155.121 9.19897 155.71 9.69444L155.715 9.69828C156.304 10.1805 156.735 10.7583 157.014 11.435L157.013 11.4354L157.016 11.4422C157.313 12.1286 157.464 12.8886 157.464 13.728V14.212C157.464 15.0514 157.313 15.8114 157.016 16.4977L157.014 16.5047C156.734 17.1828 156.302 17.7695 155.71 18.2676V18.2677C155.119 18.7499 154.361 19.1425 153.424 19.4363C152.494 19.7132 151.39 19.856 150.104 19.856C148.817 19.856 147.713 19.7132 146.783 19.4363C145.844 19.1417 145.084 18.7478 144.493 18.2637V18.264ZM156 9.35L155.71 9.69444L156 9.34976C156 9.34984 156 9.34992 156 9.35ZM146.65 8.09614L146.659 8.12625L146.775 8.51711L146.65 8.09614ZM157.43 11.264V11.2639V11.264ZM153.548 8.12635L153.423 8.52544L153.558 8.096L153.548 8.12635Z" fill="#040505"/>
<path fill-rule="evenodd" clip-rule="evenodd" d="M22.0107 7.29665L15.5033 3.53308L20.4905 0.650879L26.9979 4.41445L27.0003 11.9374L22.0131 14.8196L22.0107 7.29665ZM13.5234 20.5841L20.0332 16.8248V22.5892L13.5234 26.3486L7.01357 22.5892V16.8248L13.5234 20.5841ZM4.98716 14.8198L4.98956 7.29684L11.497 3.53327L6.5098 0.65107L0.00240794 4.41464L0 11.9376L4.98716 14.8198Z" fill="#040505"/>
</svg>
