<svg width="141" height="23" viewBox="0 0 141 23" fill="none" xmlns="http://www.w3.org/2000/svg">
<g clip-path="url(#clip0_647_2646)">
<path fill-rule="evenodd" clip-rule="evenodd" d="M48.5661 4.67667H48.8034H50.8906H51.5446L51.2358 5.24099L43.7489 18.9218L43.6382 19.1241H43.4036H41.7186H41.4855L41.3744 18.9235L33.7917 5.24278L33.4778 4.67667H34.1359H36.2805H36.5171L36.6272 4.88164L42.5601 15.9284L48.4563 4.8825L48.5661 4.67667ZM57.1517 19.1241H56.7601H54.8644H54.4727V18.7407V5.06V4.67667H54.8644H56.7601H57.1517V5.06V18.7407V19.1241ZM75.8304 4.67667H76.2221H78.0603H78.452V5.06V18.7407V19.1241H78.0603H76.4136H76.2569L76.1435 19.0184L64.4547 8.1281V18.7407V19.1241H64.063H62.2248H61.8331V18.7407V5.06V4.67667H62.2248H64.3502H64.5066L64.62 4.78208L75.8304 15.2055V5.06V4.67667ZM82.1106 7.07378V6.69044V5.06V4.67667H82.5022H98.3188H98.7104V5.06V6.69044V7.07378H98.3188H91.7597V18.7407V19.1241H91.368H89.4532H89.0615V18.7407V7.07378H82.5022H82.1106ZM118.967 19.1241H117.878H115.771H115.61L115.495 19.0118C115.231 18.7538 115.033 18.4655 114.908 18.1463L114.904 18.1363L114.901 18.126C114.796 17.8043 114.748 17.4384 114.748 17.0353V15.611C114.748 15.0492 114.71 14.617 114.642 14.3045V14.3019C114.576 13.9959 114.461 13.793 114.316 13.66L114.584 13.3811L114.577 13.388L114.316 13.66L114.307 13.652C114.18 13.5273 113.967 13.4202 113.622 13.3658L113.685 12.9873L113.683 12.9979L113.622 13.3658L113.615 13.3646L113.608 13.3633C113.261 13.2954 112.779 13.2582 112.152 13.2582H105.057V18.7407V19.1241H104.666H102.77H102.378V18.7407V5.06V4.67667H102.77H112.018C113.014 4.67667 113.888 4.7789 114.635 4.99126C115.38 5.19969 116.013 5.48471 116.518 5.85511V5.85494C117.021 6.21058 117.403 6.64261 117.652 7.15248V7.15231C117.91 7.64331 118.04 8.16562 118.04 8.71444C118.04 9.27718 117.927 9.78914 117.69 10.2396C117.464 10.6673 117.173 11.0369 116.816 11.3448C116.486 11.6286 116.12 11.858 115.716 12.0326C116.099 12.1925 116.428 12.4277 116.699 12.7358C116.988 13.0502 117.191 13.4427 117.318 13.8985V13.8986C117.457 14.3558 117.523 14.8982 117.523 15.5173V17.0353C117.523 17.3782 117.57 17.6477 117.651 17.8546C117.722 18.038 117.87 18.2367 118.128 18.4452L118.967 19.1241ZM116.288 6.16591L116.3 6.15047L116.288 6.1657C116.288 6.16577 116.288 6.16584 116.288 6.16591ZM114.335 12.069C114.338 12.0694 114.341 12.0697 114.342 12.0701L114.335 12.069ZM113.616 11.0243L113.627 11.0757L113.542 10.7018C114.023 10.5957 114.382 10.4537 114.636 10.2883C114.893 10.1203 115.055 9.93455 115.147 9.73649L115.15 9.72968C115.265 9.49508 115.322 9.24557 115.322 8.97681C115.322 8.69306 115.264 8.44654 115.153 8.22994L115.15 8.22361L115.147 8.21714C115.055 8.01904 114.893 7.8333 114.636 7.66532L114.852 7.34657L114.848 7.35215L114.636 7.66532L114.628 7.66017L114.62 7.65464C114.383 7.4833 114.043 7.33765 113.577 7.23263L113.665 6.85913L113.649 6.93032L113.577 7.23263L113.576 7.23213C113.13 7.12879 112.562 7.07378 111.865 7.07378H105.057V10.8611H111.769C112.493 10.8611 113.08 10.806 113.539 10.7022L113.542 10.7018L113.616 11.0243ZM126.823 18.4584L126.835 18.4221L126.713 18.7862C125.589 18.4241 124.637 17.9279 123.864 17.2911L123.861 17.2886L124.098 17.019L124.117 16.9979L123.861 17.2886C123.09 16.6406 122.506 15.8762 122.111 14.9968L122.11 14.995C121.717 14.1066 121.523 13.1485 121.523 12.1253V11.6755C121.523 10.653 121.717 9.70106 122.11 8.8245C122.504 7.93311 123.09 7.16772 123.861 6.53115V6.53094C124.635 5.87944 125.591 5.38208 126.716 5.03199V5.03211C127.849 4.66746 129.154 4.48926 130.627 4.48926C132.112 4.48926 133.424 4.66748 134.557 5.03248C135.695 5.38231 136.656 5.87931 137.431 6.53094V6.53114C138.203 7.16772 138.788 7.93311 139.182 8.8245C139.574 9.70106 139.769 10.653 139.769 11.6755V12.1253C139.769 13.1485 139.574 14.1066 139.182 14.995L139.181 14.9968C138.786 15.8762 138.201 16.6406 137.431 17.2885L137.427 17.2911L137.194 17.0187L137.176 16.998L137.427 17.2911C136.654 17.9286 135.694 18.4247 134.558 18.7867L134.556 18.7875L134.453 18.4701L134.437 18.4222L134.556 18.7875C133.423 19.1395 132.112 19.3115 130.627 19.3115C129.154 19.3115 127.849 19.1394 126.716 18.7875L126.713 18.7862L126.823 18.4584ZM125.514 15.8547L125.53 15.8354L125.514 15.8545C125.514 15.8545 125.514 15.8546 125.514 15.8547ZM125.762 15.5582C125.25 15.135 124.868 14.6362 124.613 14.0596C124.365 13.4733 124.24 12.8239 124.24 12.1065V11.6942C124.24 10.9769 124.365 10.3274 124.613 9.74118C124.868 9.16431 125.25 8.67202 125.762 8.26152L125.766 8.2582C126.279 7.83616 126.937 7.50195 127.751 7.26394L127.756 7.26238C128.565 7.01438 129.526 6.88637 130.646 6.88637C131.765 6.88637 132.726 7.01438 133.535 7.26241L133.54 7.26391C134.355 7.50195 135.013 7.83616 135.525 8.25822L135.53 8.2615C136.042 8.67228 136.418 9.16448 136.66 9.74092L136.659 9.74126L136.662 9.74706C136.921 10.3318 137.052 10.9792 137.052 11.6942V12.1065C137.052 12.8216 136.921 13.469 136.662 14.0536L136.66 14.0596C136.417 14.6372 136.041 15.137 135.525 15.5613V15.5614C135.011 15.9721 134.351 16.3066 133.536 16.5568C132.726 16.7927 131.765 16.9144 130.646 16.9144C129.526 16.9144 128.565 16.7927 127.756 16.5568C126.938 16.3059 126.277 15.9703 125.762 15.558V15.5582ZM135.778 7.96481L135.525 8.25822L135.778 7.96461C135.778 7.96468 135.778 7.96475 135.778 7.96481ZM127.64 6.89671L127.648 6.92236L127.749 7.25531L127.64 6.89671ZM137.022 9.59526V9.59517V9.59526ZM133.644 6.92245L133.535 7.26241L133.652 6.89659L133.644 6.92245Z" fill="#040505"/>
<path fill-rule="evenodd" clip-rule="evenodd" d="M19.1575 6.50279L13.4936 3.13432L17.8343 0.554688L23.4982 3.92316L23.5003 10.6564L19.1595 13.236L19.1575 6.50279ZM11.7704 18.3953L17.4363 15.0307V20.1899L11.7704 23.5547L6.1044 20.1899V15.0307L11.7704 18.3953ZM4.34068 13.2362L4.34277 6.50296L10.0066 3.13449L5.66594 0.554858L0.0020958 3.92333L0 10.6565L4.34068 13.2362Z" fill="#040505"/>
</g>
<defs>
<clipPath id="clip0_647_2646">
<rect width="141" height="23" fill="white"/>
</clipPath>
</defs>
</svg>
