<svg width="30" height="19" viewBox="0 0 30 19" fill="none" xmlns="http://www.w3.org/2000/svg">
<path d="M11.7812 8.33594C13.3555 7.52344 14.2188 6.35547 14.2188 4.57812C14.2188 0.972656 11.5273 0.109375 8.48047 0.109375H0V18.0859H8.68359C11.9844 18.0859 15.0312 16.5117 15.0312 12.8555C15.0312 10.6211 13.9648 8.94531 11.7812 8.33594ZM3.91016 3.15625H7.66797C9.08984 3.15625 10.3594 3.5625 10.3594 5.23828C10.3594 6.76172 9.34375 7.37109 7.92188 7.37109H3.91016V3.15625ZM8.17578 15.0391H3.91016V10.0625H8.22656C10.0039 10.0625 11.0703 10.8242 11.0703 12.6523C11.0703 14.4805 9.75 15.0391 8.17578 15.0391ZM26.3555 2.80078V1.02344H19.0938V2.80078H26.3555ZM29.25 11.7891C29.25 7.92969 26.9648 4.67969 22.9023 4.67969C18.8906 4.67969 16.1992 7.67578 16.1992 11.5859C16.1992 15.6484 18.7891 18.4414 22.9023 18.4414C26 18.4414 28.0312 17.0195 28.9961 14.0742H25.8477C25.4922 15.1914 24.0703 15.75 23.0039 15.75C20.9219 15.75 19.8047 14.5312 19.8047 12.4492H29.1992C29.1992 12.2461 29.25 11.9922 29.25 11.7891ZM19.8047 10.1641C19.9062 8.48828 21.0742 7.42188 22.75 7.42188C24.5781 7.42188 25.4922 8.4375 25.6445 10.1641H19.8047Z" fill="#040505"/>
</svg>
