<svg width="26" height="26" viewBox="0 0 26 26" fill="none" xmlns="http://www.w3.org/2000/svg">
<path d="M13 0.65625C6.04297 0.65625 0.40625 6.34375 0.40625 13.25C0.40625 20.207 6.04297 25.8438 13 25.8438C19.9062 25.8438 25.5938 20.207 25.5938 13.25C25.5938 6.34375 19.9062 0.65625 13 0.65625ZM21.2773 6.49609C22.8008 8.32422 23.7148 10.6602 23.7148 13.1992C23.3594 13.0977 19.8047 12.3867 16.25 12.8438C15.9453 12.1328 15.6914 11.5234 15.2852 10.7109C19.2969 9.08594 21.0742 6.80078 21.2773 6.49609ZM20.1094 5.22656C19.9062 5.53125 18.2812 7.71484 14.4727 9.13672C12.6953 5.88672 10.7656 3.24609 10.4609 2.83984C13.8633 2.02734 17.4688 2.89062 20.1094 5.22656ZM8.37891 3.55078C8.68359 3.95703 10.6133 6.59766 12.3906 9.79688C7.36328 11.1172 2.94531 11.1172 2.4375 11.0664C3.14844 7.76562 5.38281 4.97266 8.37891 3.55078ZM2.23438 13.3008C2.23438 13.1992 2.23438 13.0977 2.23438 12.9453C2.69141 12.9961 7.92188 13.0469 13.2539 11.4219C13.6094 12.0312 13.8633 12.6406 14.168 13.25C10.2578 14.3672 6.70312 17.5156 4.97656 20.4609C3.25 18.582 2.23438 16.043 2.23438 13.3008ZM6.34766 21.7812C7.51562 19.4961 10.5625 16.5 14.8789 15.0273C16.4023 18.9375 17.0117 22.2383 17.1641 23.2031C13.7109 24.6758 9.54688 24.2695 6.34766 21.7812ZM18.9922 22.1875C18.8906 21.5781 18.2812 18.4297 16.9102 14.5195C20.2617 14.0117 23.207 14.875 23.6133 14.9766C23.1055 17.9727 21.3789 20.5625 18.9922 22.1875Z" fill="#040505"/>
</svg>
