<svg width="48" height="48" viewBox="0 0 48 48" fill="none" xmlns="http://www.w3.org/2000/svg">
<circle cx="24" cy="24" r="24" fill="#FAFAFA"/>
<path d="M14.7109 16.125C14.7109 17.8516 15.5742 19.3242 16.8945 20.1875C15.5742 21.1016 14.7109 22.5742 14.7109 24.3008C14.7109 25.9766 15.5742 27.4492 16.8945 28.3633C15.5742 29.2266 14.7109 30.6992 14.7109 32.4258C14.7109 35.1172 16.8945 37.25 19.5859 37.25C22.2773 37.25 24.5117 35.0664 24.5117 32.375V27.8555C25.375 28.668 26.543 29.125 27.8125 29.125H27.9141C30.6055 29.125 32.7383 26.9414 32.7383 24.3008C32.7383 22.5742 31.875 21.1016 30.5547 20.1875C31.875 19.3242 32.7383 17.8516 32.7383 16.125C32.7383 13.4336 30.6055 11.25 27.9141 11.25H19.5352C16.8438 11.25 14.7109 13.4336 14.7109 16.125ZM22.9375 21V27.5508H19.5352C17.707 27.5508 16.2852 26.0781 16.2852 24.3008C16.2852 22.4727 17.7578 21 19.5352 21H22.9375ZM24.5117 24.3008C24.5117 22.4727 25.9844 21 27.8125 21H27.9141C29.6914 21 31.1641 22.4727 31.1641 24.3008C31.1641 26.0781 29.6914 27.5508 27.9141 27.5508H27.8125C25.9844 27.5508 24.5117 26.0781 24.5117 24.3008ZM19.5352 29.125H22.9375V32.375C22.9375 34.2031 21.4141 35.6758 19.5859 35.6758C17.7578 35.6758 16.2852 34.2031 16.2852 32.4258C16.2852 30.5977 17.707 29.1758 19.5352 29.125ZM19.5352 12.875H22.9375V19.4258H19.5352C17.7578 19.4258 16.2852 17.9531 16.2852 16.125C16.2852 14.3477 17.7578 12.875 19.5352 12.875ZM24.5117 19.4258V12.875H27.9141C29.6914 12.875 31.1641 14.3477 31.1641 16.125C31.1641 17.9531 29.6914 19.4258 27.9141 19.4258H24.5117Z" fill="#040505"/>
</svg>
