<svg width="48" height="48" viewBox="0 0 48 48" fill="none" xmlns="http://www.w3.org/2000/svg">
<circle cx="24" cy="24" r="24" fill="#FAFAFA"/>
<path d="M19.3789 31.4609C19.3789 31.3594 19.2773 31.2578 19.125 31.2578C18.9727 31.2578 18.8711 31.3594 18.8711 31.4609C18.8711 31.5625 18.9727 31.6641 19.125 31.6133C19.2773 31.6133 19.3789 31.5625 19.3789 31.4609ZM17.8047 31.207C17.8047 31.3086 17.9062 31.4609 18.0586 31.4609C18.1602 31.5117 18.3125 31.4609 18.3633 31.3594C18.3633 31.2578 18.3125 31.1562 18.1602 31.1055C18.0078 31.0547 17.8555 31.1055 17.8047 31.207ZM20.0898 31.1562C19.9375 31.1562 19.8359 31.2578 19.8359 31.4102C19.8359 31.5117 19.9883 31.5625 20.1406 31.5117C20.293 31.4609 20.3945 31.4102 20.3438 31.3086C20.3438 31.207 20.1914 31.1055 20.0898 31.1562ZM23.3906 11.6562C16.3828 11.6562 11 17.0391 11 24.0469C11 29.6836 14.5039 34.5078 19.582 36.2344C20.2422 36.3359 20.4453 35.9297 20.4453 35.625C20.4453 35.2695 20.4453 33.543 20.4453 32.4766C20.4453 32.4766 16.8906 33.2383 16.1289 30.9531C16.1289 30.9531 15.5703 29.4805 14.7578 29.125C14.7578 29.125 13.5898 28.3125 14.8086 28.3125C14.8086 28.3125 16.0781 28.4141 16.7891 29.6328C17.9062 31.6133 19.7344 31.0547 20.4961 30.6992C20.5977 29.8867 20.9023 29.3281 21.3086 28.9727C18.4648 28.668 15.5703 28.2617 15.5703 23.3867C15.5703 21.9648 15.9766 21.3047 16.7891 20.3906C16.6367 20.0352 16.2305 18.7148 16.9414 16.9375C17.957 16.6328 20.4453 18.3086 20.4453 18.3086C21.4609 18.0039 22.5273 17.9023 23.5938 17.9023C24.7109 17.9023 25.7773 18.0039 26.793 18.3086C26.793 18.3086 29.2305 16.582 30.2969 16.9375C31.0078 18.7148 30.5508 20.0352 30.4492 20.3906C31.2617 21.3047 31.7695 21.9648 31.7695 23.3867C31.7695 28.2617 28.7734 28.668 25.9297 28.9727C26.3867 29.3789 26.793 30.1406 26.793 31.3594C26.793 33.0352 26.7422 35.168 26.7422 35.5742C26.7422 35.9297 26.9961 36.3359 27.6562 36.1836C32.7344 34.5078 36.1875 29.6836 36.1875 24.0469C36.1875 17.0391 30.4492 11.6562 23.3906 11.6562ZM15.9258 29.1758C15.8242 29.2266 15.875 29.3789 15.9258 29.4805C16.0273 29.5312 16.1289 29.582 16.2305 29.5312C16.2812 29.4805 16.2812 29.3281 16.1797 29.2266C16.0781 29.1758 15.9766 29.125 15.9258 29.1758ZM15.3672 28.7695C15.3164 28.8711 15.3672 28.9219 15.4688 28.9727C15.5703 29.0234 15.6719 29.0234 15.7227 28.9219C15.7227 28.8711 15.6719 28.8203 15.5703 28.7695C15.4688 28.7188 15.418 28.7188 15.3672 28.7695ZM16.9922 30.5977C16.9414 30.6484 16.9414 30.8008 17.0938 30.9023C17.1953 31.0039 17.3477 31.0547 17.3984 30.9531C17.4492 30.9023 17.4492 30.75 17.3477 30.6484C17.2461 30.5469 17.0938 30.4961 16.9922 30.5977ZM16.4336 29.8359C16.332 29.8867 16.332 30.0391 16.4336 30.1406C16.5352 30.2422 16.6367 30.293 16.7383 30.2422C16.7891 30.1914 16.7891 30.0391 16.7383 29.9375C16.6367 29.8359 16.5352 29.7852 16.4336 29.8359Z" fill="#040505"/>
</svg>
