<svg width="19" height="20" viewBox="0 0 19 20" fill="none" xmlns="http://www.w3.org/2000/svg">
<path d="M9.5 0.671875C4.41602 0.671875 0.296875 4.79102 0.296875 9.875C0.296875 14.959 4.41602 19.0781 9.5 19.0781C14.584 19.0781 18.7031 14.959 18.7031 9.875C18.7031 4.79102 14.584 0.671875 9.5 0.671875ZM13.9902 6.98047L12.5059 14.1055C12.3945 14.625 12.0977 14.7363 11.6523 14.5137L9.35156 12.8066L8.23828 13.8828C8.12695 13.9941 8.01562 14.1055 7.79297 14.1055L7.94141 11.7676L12.209 7.9082C12.3945 7.75977 12.1719 7.64844 11.9121 7.79688L6.64258 11.1367L4.37891 10.4316C3.89648 10.2832 3.89648 9.91211 4.49023 9.68945L13.3594 6.27539C13.7676 6.12695 14.1387 6.38672 13.9902 6.98047Z" fill="#040505"/>
</svg>
