<svg width="26" height="26" viewBox="0 0 25 26" fill="none" xmlns="http://www.w3.org/2000/svg">
<path d="M12.5938 0.65625C5.63672 0.65625 0 6.29297 0 13.25C0 20.207 5.63672 25.8438 12.5938 25.8438C19.5508 25.8438 25.1875 20.207 25.1875 13.25C25.1875 6.29297 19.5508 0.65625 12.5938 0.65625ZM18.7383 9.28906L16.707 19.0391C16.5547 19.75 16.1484 19.9023 15.5391 19.5977L12.3906 17.2617L10.8672 18.7344C10.7148 18.8867 10.5625 19.0391 10.2578 19.0391L10.4609 15.8398L16.3008 10.5586C16.5547 10.3555 16.25 10.2031 15.8945 10.4062L8.68359 14.9766L5.58594 14.0117C4.92578 13.8086 4.92578 13.3008 5.73828 12.9961L17.875 8.32422C18.4336 8.12109 18.9414 8.47656 18.7383 9.28906Z" fill="#040505"/>
</svg>
